<svg width="416" height="445" viewBox="0 0 416 445" fill="none" xmlns="http://www.w3.org/2000/svg">
<g filter="url(#filter0_d_110_39)">
<ellipse cx="81.5" cy="77" rx="77.5" ry="77" fill="white"/>
<g clip-path="url(#clip0_110_39)">
<path d="M63.1375 52.0625C63.4896 51.6509 63.9266 51.3204 64.4186 51.0938C64.9106 50.8673 65.4458 50.75 65.9875 50.75H98.0125C98.5542 50.75 99.0894 50.8673 99.5814 51.0938C100.073 51.3204 100.51 51.6509 100.862 52.0625L110.646 63.4775C111.52 64.4969 112 65.795 112 67.1375V68.0938C112 69.9499 111.42 71.7598 110.342 73.2703C109.263 74.7809 107.74 75.9167 105.984 76.519C104.228 77.1214 102.328 77.1601 100.549 76.6298C98.7704 76.0995 97.2018 75.0266 96.0625 73.5613C95.2305 74.6329 94.1644 75.4999 92.9456 76.096C91.7269 76.692 90.3879 77.0012 89.0312 77C87.6745 77.0015 86.3355 76.6924 85.1167 76.0963C83.8979 75.5003 82.8318 74.6331 82 73.5613C81.1682 74.6331 80.1021 75.5003 78.8833 76.0963C77.6645 76.6924 76.3255 77.0015 74.9688 77C73.612 77.0015 72.273 76.6924 71.0542 76.0963C69.8354 75.5003 68.7693 74.6331 67.9375 73.5613C66.7982 75.0266 65.2296 76.0995 63.4508 76.6298C61.672 77.1601 59.7719 77.1214 58.0162 76.519C56.2605 75.9167 54.7368 74.7809 53.6582 73.2703C52.5795 71.7598 51.9998 69.9499 52 68.0938V67.1375C52 65.795 52.4802 64.4969 53.3537 63.4775L63.1412 52.0587L63.1375 52.0625ZM69.8125 68.0938C69.8125 69.4613 70.3557 70.7728 71.3227 71.7398C72.2897 72.7068 73.6012 73.25 74.9688 73.25C76.3363 73.25 77.6478 72.7068 78.6148 71.7398C79.5818 70.7728 80.125 69.4613 80.125 68.0938C80.125 67.5965 80.3225 67.1196 80.6742 66.7679C81.0258 66.4163 81.5027 66.2188 82 66.2188C82.4973 66.2188 82.9742 66.4163 83.3258 66.7679C83.6775 67.1196 83.875 67.5965 83.875 68.0938C83.875 69.4613 84.4182 70.7728 85.3852 71.7398C86.3522 72.7068 87.6637 73.25 89.0312 73.25C90.3988 73.25 91.7103 72.7068 92.6773 71.7398C93.6443 70.7728 94.1875 69.4613 94.1875 68.0938C94.1875 67.5965 94.385 67.1196 94.7367 66.7679C95.0883 66.4163 95.5652 66.2188 96.0625 66.2188C96.5598 66.2188 97.0367 66.4163 97.3883 66.7679C97.74 67.1196 97.9375 67.5965 97.9375 68.0938C97.9375 69.4613 98.4807 70.7728 99.4477 71.7398C100.415 72.7068 101.726 73.25 103.094 73.25C104.461 73.25 105.773 72.7068 106.74 71.7398C107.707 70.7728 108.25 69.4613 108.25 68.0938V67.1375C108.25 66.6906 108.09 66.2584 107.8 65.9188L98.0125 54.5H65.9875L56.2 65.9188C55.9096 66.2584 55.75 66.6906 55.75 67.1375V68.0938C55.75 69.4613 56.2932 70.7728 57.2602 71.7398C58.2272 72.7068 59.5387 73.25 60.9062 73.25C62.2738 73.25 63.5853 72.7068 64.5523 71.7398C65.5193 70.7728 66.0625 69.4613 66.0625 68.0938C66.0625 67.5965 66.26 67.1196 66.6117 66.7679C66.9633 66.4163 67.4402 66.2188 67.9375 66.2188C68.4348 66.2188 68.9117 66.4163 69.2633 66.7679C69.615 67.1196 69.8125 67.5965 69.8125 68.0938ZM57.625 78.875C58.1223 78.875 58.5992 79.0725 58.9508 79.4242C59.3025 79.7758 59.5 80.2527 59.5 80.75V103.25H63.25V84.5C63.25 83.5054 63.6451 82.5516 64.3483 81.8484C65.0516 81.1451 66.0054 80.75 67 80.75H78.25C79.2446 80.75 80.1984 81.1451 80.9016 81.8484C81.6049 82.5516 82 83.5054 82 84.5V103.25H104.5V80.75C104.5 80.2527 104.698 79.7758 105.049 79.4242C105.401 79.0725 105.878 78.875 106.375 78.875C106.872 78.875 107.349 79.0725 107.701 79.4242C108.052 79.7758 108.25 80.2527 108.25 80.75V103.25H110.125C110.622 103.25 111.099 103.448 111.451 103.799C111.802 104.151 112 104.628 112 105.125C112 105.622 111.802 106.099 111.451 106.451C111.099 106.802 110.622 107 110.125 107H53.875C53.3777 107 52.9008 106.802 52.5492 106.451C52.1975 106.099 52 105.622 52 105.125C52 104.628 52.1975 104.151 52.5492 103.799C52.9008 103.448 53.3777 103.25 53.875 103.25H55.75V80.75C55.75 80.2527 55.9475 79.7758 56.2992 79.4242C56.6508 79.0725 57.1277 78.875 57.625 78.875ZM67 103.25H78.25V84.5H67V103.25ZM85.75 84.5C85.75 83.5054 86.1451 82.5516 86.8484 81.8484C87.5516 81.1451 88.5054 80.75 89.5 80.75H97C97.9946 80.75 98.9484 81.1451 99.6516 81.8484C100.355 82.5516 100.75 83.5054 100.75 84.5V95.75C100.75 96.7446 100.355 97.6984 99.6516 98.4016C98.9484 99.1049 97.9946 99.5 97 99.5H89.5C88.5054 99.5 87.5516 99.1049 86.8484 98.4016C86.1451 97.6984 85.75 96.7446 85.75 95.75V84.5ZM97 84.5H89.5V95.75H97V84.5Z" fill="#134611"/>
</g>
</g>
<g filter="url(#filter1_d_110_39)">
<ellipse cx="306.5" cy="379" rx="54.5" ry="58" fill="white"/>
<path d="M291.375 361.812C291.375 359.74 292.198 357.753 293.663 356.288C295.128 354.823 297.115 354 299.188 354C301.26 354 303.247 354.823 304.712 356.288C306.177 357.753 307 359.74 307 361.812C307 359.74 307.823 357.753 309.288 356.288C310.753 354.823 312.74 354 314.812 354C316.885 354 318.872 354.823 320.337 356.288C321.802 357.753 322.625 359.74 322.625 361.812V361.831C322.625 362.05 322.625 362.675 322.506 363.375H328.875C329.704 363.375 330.499 363.704 331.085 364.29C331.671 364.876 332 365.671 332 366.5V372.75C332 373.579 331.671 374.374 331.085 374.96C330.499 375.546 329.704 375.875 328.875 375.875V399.312C328.875 400.556 328.381 401.748 327.502 402.627C326.623 403.506 325.431 404 324.188 404H289.812C288.569 404 287.377 403.506 286.498 402.627C285.619 401.748 285.125 400.556 285.125 399.312V375.875C284.296 375.875 283.501 375.546 282.915 374.96C282.329 374.374 282 373.579 282 372.75V366.5C282 365.671 282.329 364.876 282.915 364.29C283.501 363.704 284.296 363.375 285.125 363.375H291.494C291.411 362.865 291.371 362.348 291.375 361.831V361.812ZM294.712 363.375H303.875V361.812C303.875 361.197 303.754 360.587 303.518 360.019C303.283 359.45 302.937 358.933 302.502 358.498C302.067 358.063 301.55 357.717 300.981 357.482C300.413 357.246 299.803 357.125 299.188 357.125C298.572 357.125 297.962 357.246 297.394 357.482C296.825 357.717 296.308 358.063 295.873 358.498C295.438 358.933 295.092 359.45 294.857 360.019C294.621 360.587 294.5 361.197 294.5 361.812C294.5 362.078 294.506 362.669 294.641 363.156C294.659 363.231 294.683 363.304 294.712 363.375ZM310.125 363.375H319.288C319.316 363.304 319.34 363.231 319.359 363.156C319.494 362.669 319.5 362.078 319.5 361.812C319.5 360.569 319.006 359.377 318.127 358.498C317.248 357.619 316.056 357.125 314.812 357.125C313.569 357.125 312.377 357.619 311.498 358.498C310.619 359.377 310.125 360.569 310.125 361.812V363.375ZM285.125 366.5V372.75H303.875V366.5H285.125ZM310.125 366.5V372.75H328.875V366.5H310.125ZM325.75 375.875H310.125V400.875H324.188C324.602 400.875 324.999 400.71 325.292 400.417C325.585 400.124 325.75 399.727 325.75 399.312V375.875ZM303.875 400.875V375.875H288.25V399.312C288.25 399.727 288.415 400.124 288.708 400.417C289.001 400.71 289.398 400.875 289.812 400.875H303.875Z" fill="#134611"/>
</g>
<g filter="url(#filter2_d_110_39)">
<ellipse cx="139.5" cy="321" rx="54.5" ry="54" fill="white"/>
<g clip-path="url(#clip1_110_39)">
<path d="M158.75 305.375C159.579 305.375 160.374 305.704 160.96 306.29C161.546 306.876 161.875 307.671 161.875 308.5V333.5C161.875 334.329 161.546 335.124 160.96 335.71C160.374 336.296 159.579 336.625 158.75 336.625H121.25C120.421 336.625 119.626 336.296 119.04 335.71C118.454 335.124 118.125 334.329 118.125 333.5V308.5C118.125 307.671 118.454 306.876 119.04 306.29C119.626 305.704 120.421 305.375 121.25 305.375H158.75ZM121.25 302.25C119.592 302.25 118.003 302.908 116.831 304.081C115.658 305.253 115 306.842 115 308.5V333.5C115 335.158 115.658 336.747 116.831 337.919C118.003 339.092 119.592 339.75 121.25 339.75H158.75C160.408 339.75 161.997 339.092 163.169 337.919C164.342 336.747 165 335.158 165 333.5V308.5C165 306.842 164.342 305.253 163.169 304.081C161.997 302.908 160.408 302.25 158.75 302.25H121.25Z" fill="#11461F"/>
<path d="M121.25 313.188C121.25 312.773 121.415 312.376 121.708 312.083C122.001 311.79 122.398 311.625 122.812 311.625H129.062C129.477 311.625 129.874 311.79 130.167 312.083C130.46 312.376 130.625 312.773 130.625 313.188V316.312C130.625 316.727 130.46 317.124 130.167 317.417C129.874 317.71 129.477 317.875 129.062 317.875H122.812C122.398 317.875 122.001 317.71 121.708 317.417C121.415 317.124 121.25 316.727 121.25 316.312V313.188ZM121.25 322.562C121.25 322.148 121.415 321.751 121.708 321.458C122.001 321.165 122.398 321 122.812 321H138.438C138.852 321 139.249 321.165 139.542 321.458C139.835 321.751 140 322.148 140 322.562C140 322.977 139.835 323.374 139.542 323.667C139.249 323.96 138.852 324.125 138.438 324.125H122.812C122.398 324.125 122.001 323.96 121.708 323.667C121.415 323.374 121.25 322.977 121.25 322.562ZM121.25 328.812C121.25 328.398 121.415 328.001 121.708 327.708C122.001 327.415 122.398 327.25 122.812 327.25H125.938C126.352 327.25 126.749 327.415 127.042 327.708C127.335 328.001 127.5 328.398 127.5 328.812C127.5 329.227 127.335 329.624 127.042 329.917C126.749 330.21 126.352 330.375 125.938 330.375H122.812C122.398 330.375 122.001 330.21 121.708 329.917C121.415 329.624 121.25 329.227 121.25 328.812ZM130.625 328.812C130.625 328.398 130.79 328.001 131.083 327.708C131.376 327.415 131.773 327.25 132.188 327.25H135.312C135.727 327.25 136.124 327.415 136.417 327.708C136.71 328.001 136.875 328.398 136.875 328.812C136.875 329.227 136.71 329.624 136.417 329.917C136.124 330.21 135.727 330.375 135.312 330.375H132.188C131.773 330.375 131.376 330.21 131.083 329.917C130.79 329.624 130.625 329.227 130.625 328.812ZM140 328.812C140 328.398 140.165 328.001 140.458 327.708C140.751 327.415 141.148 327.25 141.562 327.25H144.688C145.102 327.25 145.499 327.415 145.792 327.708C146.085 328.001 146.25 328.398 146.25 328.812C146.25 329.227 146.085 329.624 145.792 329.917C145.499 330.21 145.102 330.375 144.688 330.375H141.562C141.148 330.375 140.751 330.21 140.458 329.917C140.165 329.624 140 329.227 140 328.812ZM149.375 328.812C149.375 328.398 149.54 328.001 149.833 327.708C150.126 327.415 150.523 327.25 150.938 327.25H154.062C154.477 327.25 154.874 327.415 155.167 327.708C155.46 328.001 155.625 328.398 155.625 328.812C155.625 329.227 155.46 329.624 155.167 329.917C154.874 330.21 154.477 330.375 154.062 330.375H150.938C150.523 330.375 150.126 330.21 149.833 329.917C149.54 329.624 149.375 329.227 149.375 328.812Z" fill="#11461F"/>
</g>
</g>
<g filter="url(#filter3_d_110_39)">
<circle cx="337.5" cy="154.5" r="74.5" fill="white"/>
<path d="M313 134.688C313 134.273 313.165 133.876 313.458 133.583C313.751 133.29 314.148 133.125 314.562 133.125H319.25C319.599 133.125 319.937 133.242 320.212 133.456C320.486 133.671 320.681 133.971 320.766 134.309L322.031 139.375H358.312C358.544 139.375 358.772 139.427 358.981 139.525C359.189 139.624 359.374 139.768 359.52 139.947C359.667 140.126 359.772 140.335 359.828 140.559C359.884 140.783 359.889 141.017 359.844 141.244L356.719 156.869C356.65 157.209 356.47 157.518 356.207 157.745C355.944 157.972 355.613 158.104 355.266 158.122L325.9 159.597L326.797 164.375H353.625C354.039 164.375 354.437 164.54 354.73 164.833C355.023 165.126 355.188 165.523 355.188 165.938C355.188 166.352 355.023 166.749 354.73 167.042C354.437 167.335 354.039 167.5 353.625 167.5H325.5C325.136 167.5 324.783 167.372 324.503 167.139C324.223 166.906 324.033 166.583 323.966 166.225L319.281 141.272L318.031 136.25H314.562C314.148 136.25 313.751 136.085 313.458 135.792C313.165 135.499 313 135.102 313 134.688ZM322.694 142.5L325.319 156.497L353.894 155.063L356.406 142.5H322.694ZM328.625 167.5C326.967 167.5 325.378 168.158 324.206 169.331C323.033 170.503 322.375 172.092 322.375 173.75C322.375 175.408 323.033 176.997 324.206 178.169C325.378 179.342 326.967 180 328.625 180C330.283 180 331.872 179.342 333.044 178.169C334.217 176.997 334.875 175.408 334.875 173.75C334.875 172.092 334.217 170.503 333.044 169.331C331.872 168.158 330.283 167.5 328.625 167.5ZM350.5 167.5C348.842 167.5 347.253 168.158 346.081 169.331C344.908 170.503 344.25 172.092 344.25 173.75C344.25 175.408 344.908 176.997 346.081 178.169C347.253 179.342 348.842 180 350.5 180C352.158 180 353.747 179.342 354.919 178.169C356.092 176.997 356.75 175.408 356.75 173.75C356.75 172.092 356.092 170.503 354.919 169.331C353.747 168.158 352.158 167.5 350.5 167.5ZM328.625 170.625C329.454 170.625 330.249 170.954 330.835 171.54C331.421 172.126 331.75 172.921 331.75 173.75C331.75 174.579 331.421 175.374 330.835 175.96C330.249 176.546 329.454 176.875 328.625 176.875C327.796 176.875 327.001 176.546 326.415 175.96C325.829 175.374 325.5 174.579 325.5 173.75C325.5 172.921 325.829 172.126 326.415 171.54C327.001 170.954 327.796 170.625 328.625 170.625ZM350.5 170.625C351.329 170.625 352.124 170.954 352.71 171.54C353.296 172.126 353.625 172.921 353.625 173.75C353.625 174.579 353.296 175.374 352.71 175.96C352.124 176.546 351.329 176.875 350.5 176.875C349.671 176.875 348.876 176.546 348.29 175.96C347.704 175.374 347.375 174.579 347.375 173.75C347.375 172.921 347.704 172.126 348.29 171.54C348.876 170.954 349.671 170.625 350.5 170.625Z" fill="#134611"/>
</g>
<g filter="url(#filter4_d_110_39)">
<circle cx="216" cy="212" r="103" fill="white"/>
<path d="M191 196.375C191 195.546 191.329 194.751 191.915 194.165C192.501 193.579 193.296 193.25 194.125 193.25H237.875C238.704 193.25 239.499 193.579 240.085 194.165C240.671 194.751 241 195.546 241 196.375C241 197.204 240.671 197.999 240.085 198.585C239.499 199.171 238.704 199.5 237.875 199.5H194.125C193.296 199.5 192.501 199.171 191.915 198.585C191.329 197.999 191 197.204 191 196.375ZM191 227.625C191 226.796 191.329 226.001 191.915 225.415C192.501 224.829 193.296 224.5 194.125 224.5H237.875C238.704 224.5 239.499 224.829 240.085 225.415C240.671 226.001 241 226.796 241 227.625C241 228.454 240.671 229.249 240.085 229.835C239.499 230.421 238.704 230.75 237.875 230.75H194.125C193.296 230.75 192.501 230.421 191.915 229.835C191.329 229.249 191 228.454 191 227.625ZM197.25 205.75C195.592 205.75 194.003 206.408 192.831 207.581C191.658 208.753 191 210.342 191 212C191 213.658 191.658 215.247 192.831 216.419C194.003 217.592 195.592 218.25 197.25 218.25H234.75C236.408 218.25 237.997 217.592 239.169 216.419C240.342 215.247 241 213.658 241 212C241 210.342 240.342 208.753 239.169 207.581C237.997 206.408 236.408 205.75 234.75 205.75H197.25Z" fill="#11461F"/>
<path d="M166 190.125C166 187.639 166.988 185.254 168.746 183.496C170.504 181.738 172.889 180.75 175.375 180.75H256.625C259.111 180.75 261.496 181.738 263.254 183.496C265.012 185.254 266 187.639 266 190.125V199.5C266 200.329 265.671 201.124 265.085 201.71C264.499 202.296 263.704 202.625 262.875 202.625C260.389 202.625 258.004 203.613 256.246 205.371C254.488 207.129 253.5 209.514 253.5 212C253.5 214.486 254.488 216.871 256.246 218.629C258.004 220.387 260.389 221.375 262.875 221.375C263.704 221.375 264.499 221.704 265.085 222.29C265.671 222.876 266 223.671 266 224.5V233.875C266 236.361 265.012 238.746 263.254 240.504C261.496 242.262 259.111 243.25 256.625 243.25H175.375C172.889 243.25 170.504 242.262 168.746 240.504C166.988 238.746 166 236.361 166 233.875V224.5C166 223.671 166.329 222.876 166.915 222.29C167.501 221.704 168.296 221.375 169.125 221.375C171.611 221.375 173.996 220.387 175.754 218.629C177.512 216.871 178.5 214.486 178.5 212C178.5 209.514 177.512 207.129 175.754 205.371C173.996 203.613 171.611 202.625 169.125 202.625C168.296 202.625 167.501 202.296 166.915 201.71C166.329 201.124 166 200.329 166 199.5V190.125ZM175.375 187C174.546 187 173.751 187.329 173.165 187.915C172.579 188.501 172.25 189.296 172.25 190.125V196.688C175.782 197.405 178.958 199.321 181.239 202.112C183.52 204.902 184.766 208.396 184.766 212C184.766 215.604 183.52 219.098 181.239 221.888C178.958 224.679 175.782 226.595 172.25 227.312V233.875C172.25 234.704 172.579 235.499 173.165 236.085C173.751 236.671 174.546 237 175.375 237H256.625C257.454 237 258.249 236.671 258.835 236.085C259.421 235.499 259.75 234.704 259.75 233.875V227.312C256.218 226.595 253.042 224.679 250.761 221.888C248.48 219.098 247.234 215.604 247.234 212C247.234 208.396 248.48 204.902 250.761 202.112C253.042 199.321 256.218 197.405 259.75 196.688V190.125C259.75 189.296 259.421 188.501 258.835 187.915C258.249 187.329 257.454 187 256.625 187H175.375Z" fill="#11461F"/>
</g>
<defs>
<filter id="filter0_d_110_39" x="0" y="0" width="163" height="162" filterUnits="userSpaceOnUse" color-interpolation-filters="sRGB">
<feFlood flood-opacity="0" result="BackgroundImageFix"/>
<feColorMatrix in="SourceAlpha" type="matrix" values="0 0 0 0 0 0 0 0 0 0 0 0 0 0 0 0 0 0 127 0" result="hardAlpha"/>
<feOffset dy="4"/>
<feGaussianBlur stdDeviation="2"/>
<feComposite in2="hardAlpha" operator="out"/>
<feColorMatrix type="matrix" values="0 0 0 0 0 0 0 0 0 0 0 0 0 0 0 0 0 0 0.25 0"/>
<feBlend mode="normal" in2="BackgroundImageFix" result="effect1_dropShadow_110_39"/>
<feBlend mode="normal" in="SourceGraphic" in2="effect1_dropShadow_110_39" result="shape"/>
</filter>
<filter id="filter1_d_110_39" x="248" y="321" width="117" height="124" filterUnits="userSpaceOnUse" color-interpolation-filters="sRGB">
<feFlood flood-opacity="0" result="BackgroundImageFix"/>
<feColorMatrix in="SourceAlpha" type="matrix" values="0 0 0 0 0 0 0 0 0 0 0 0 0 0 0 0 0 0 127 0" result="hardAlpha"/>
<feOffset dy="4"/>
<feGaussianBlur stdDeviation="2"/>
<feComposite in2="hardAlpha" operator="out"/>
<feColorMatrix type="matrix" values="0 0 0 0 0 0 0 0 0 0 0 0 0 0 0 0 0 0 0.25 0"/>
<feBlend mode="normal" in2="BackgroundImageFix" result="effect1_dropShadow_110_39"/>
<feBlend mode="normal" in="SourceGraphic" in2="effect1_dropShadow_110_39" result="shape"/>
</filter>
<filter id="filter2_d_110_39" x="81" y="267" width="117" height="116" filterUnits="userSpaceOnUse" color-interpolation-filters="sRGB">
<feFlood flood-opacity="0" result="BackgroundImageFix"/>
<feColorMatrix in="SourceAlpha" type="matrix" values="0 0 0 0 0 0 0 0 0 0 0 0 0 0 0 0 0 0 127 0" result="hardAlpha"/>
<feOffset dy="4"/>
<feGaussianBlur stdDeviation="2"/>
<feComposite in2="hardAlpha" operator="out"/>
<feColorMatrix type="matrix" values="0 0 0 0 0 0 0 0 0 0 0 0 0 0 0 0 0 0 0.25 0"/>
<feBlend mode="normal" in2="BackgroundImageFix" result="effect1_dropShadow_110_39"/>
<feBlend mode="normal" in="SourceGraphic" in2="effect1_dropShadow_110_39" result="shape"/>
</filter>
<filter id="filter3_d_110_39" x="259" y="80" width="157" height="157" filterUnits="userSpaceOnUse" color-interpolation-filters="sRGB">
<feFlood flood-opacity="0" result="BackgroundImageFix"/>
<feColorMatrix in="SourceAlpha" type="matrix" values="0 0 0 0 0 0 0 0 0 0 0 0 0 0 0 0 0 0 127 0" result="hardAlpha"/>
<feOffset dy="4"/>
<feGaussianBlur stdDeviation="2"/>
<feComposite in2="hardAlpha" operator="out"/>
<feColorMatrix type="matrix" values="0 0 0 0 0 0 0 0 0 0 0 0 0 0 0 0 0 0 0.25 0"/>
<feBlend mode="normal" in2="BackgroundImageFix" result="effect1_dropShadow_110_39"/>
<feBlend mode="normal" in="SourceGraphic" in2="effect1_dropShadow_110_39" result="shape"/>
</filter>
<filter id="filter4_d_110_39" x="109" y="109" width="214" height="214" filterUnits="userSpaceOnUse" color-interpolation-filters="sRGB">
<feFlood flood-opacity="0" result="BackgroundImageFix"/>
<feColorMatrix in="SourceAlpha" type="matrix" values="0 0 0 0 0 0 0 0 0 0 0 0 0 0 0 0 0 0 127 0" result="hardAlpha"/>
<feOffset dy="4"/>
<feGaussianBlur stdDeviation="2"/>
<feComposite in2="hardAlpha" operator="out"/>
<feColorMatrix type="matrix" values="0 0 0 0 0 0 0 0 0 0 0 0 0 0 0 0 0 0 0.25 0"/>
<feBlend mode="normal" in2="BackgroundImageFix" result="effect1_dropShadow_110_39"/>
<feBlend mode="normal" in="SourceGraphic" in2="effect1_dropShadow_110_39" result="shape"/>
</filter>
<clipPath id="clip0_110_39">
<rect width="60" height="60" fill="white" transform="translate(52 47)"/>
</clipPath>
<clipPath id="clip1_110_39">
<rect width="50" height="50" fill="white" transform="translate(115 296)"/>
</clipPath>
</defs>
</svg>
